<svg xmlns="http://www.w3.org/2000/svg" width="600" height="240" viewBox="0 0 600 240">
  <defs>
    <pattern id="rulings" x="0" y="0" width="600" height="240" patternUnits="userSpaceOnUse">
      
      <g stroke="#f6f3ea" stroke-opacity="0.10" stroke-width="0.5">
        <line x1="0" y1="20" x2="600" y2="20"></line>
        <line x1="0" y1="44" x2="600" y2="44"></line>
        <line x1="0" y1="68" x2="600" y2="68"></line>
        <line x1="0" y1="92" x2="600" y2="92"></line>
        <line x1="0" y1="116" x2="600" y2="116"></line>
        <line x1="0" y1="140" x2="600" y2="140"></line>
        <line x1="0" y1="164" x2="600" y2="164"></line>
        <line x1="0" y1="188" x2="600" y2="188"></line>
        <line x1="0" y1="212" x2="600" y2="212"></line>
        <line x1="0" y1="236" x2="600" y2="236"></line>
      </g>
      
      <g stroke="#f6f3ea" stroke-opacity="0.14" stroke-width="0.6">
        <line x1="48" y1="0" x2="48" y2="240"></line>
        <line x1="552" y1="0" x2="552" y2="240"></line>
      </g>
      
      <g fill="#f6f3ea" fill-opacity="0.16" font-family="Georgia, serif" font-style="italic" font-size="10">
        <text x="30" y="71">❦</text>
        <text x="566" y="143">❦</text>
        <text x="30" y="215">❦</text>
      </g>
    </pattern>
  </defs>
  <rect width="100%" height="100%" fill="url(#rulings)"></rect>
</svg>